<svg width="38" height="38" viewBox="0 0 38 38" fill="none" xmlns="http://www.w3.org/2000/svg">
<path d="M13.252 8.11483V14.662V27.1811C13.252 29.3684 11.4803 31.1401 9.29297 31.1401H27.7425C30.9103 31.1401 32.6673 29.006 32.6673 25.5587L32.6806 8.11483C32.6806 6.85332 31.4738 6.034 30.4268 6.57084L29.4344 7.09438C28.8428 7.40347 28.1595 7.41679 27.5414 7.14762L24.7373 5.89942C23.5971 5.40397 22.3355 5.40397 21.1954 5.89942L18.3913 7.14762C17.7731 7.41679 17.0883 7.40347 16.4983 7.09438L15.5059 6.57084C14.4588 6.034 13.252 6.86662 13.252 8.11483Z" stroke="#8635FD" stroke-width="2" stroke-linecap="round" stroke-linejoin="round"/>
<path d="M25.0232 14.7279H21.669C20.6722 14.7279 19.8633 15.5369 19.8633 16.5337C19.8633 17.5319 20.6722 18.3395 21.669 18.3395H23.7335C24.7303 18.3395 25.5393 19.1484 25.5393 20.1466C25.5393 21.1434 24.7303 21.9524 23.7335 21.9524H20.3793" stroke="#8635FD" stroke-width="2" stroke-linecap="round" stroke-linejoin="round"/>
<path d="M22.7012 21.9514V23.4673M22.7012 13.202V14.7312" stroke="#8635FD" stroke-width="2" stroke-linecap="round" stroke-linejoin="round"/>
<path d="M9.2927 31.1398C8.19237 31.1398 7.20002 30.6977 6.48866 29.9863C5.76399 29.2616 5.32031 28.2678 5.32031 27.1807V16.1643C5.32031 14.9028 6.52859 14.0849 7.57566 14.6218L8.56802 15.1453C9.15811 15.4543 9.84284 15.4677 10.4596 15.1985L12.3526 14.3541C12.499 14.2861 12.8761 14.4606 13.2517 14.6617" stroke="#8635FD" stroke-width="2" stroke-linecap="round" stroke-linejoin="round"/>
</svg>
