<svg width="31" height="34" viewBox="0 0 31 34" fill="none" xmlns="http://www.w3.org/2000/svg">
<path fill-rule="evenodd" clip-rule="evenodd" d="M28.9442 10.0707L27.9587 8.36056C27.125 6.91352 25.2773 6.41432 23.8283 7.24462C23.1385 7.65094 22.3155 7.76622 21.5406 7.56503C20.7658 7.36385 20.1028 6.86272 19.6978 6.17215C19.4373 5.73322 19.2973 5.23327 19.292 4.72288C19.3155 3.90458 19.0068 3.11162 18.4362 2.52462C17.8656 1.93763 17.0817 1.6066 16.2631 1.60693H14.2776C13.4755 1.60693 12.7066 1.92651 12.1408 2.49498C11.5751 3.06344 11.2592 3.83392 11.2631 4.63592C11.2393 6.29178 9.89011 7.6216 8.23408 7.62143C7.72368 7.61613 7.22374 7.47614 6.7848 7.21563C5.33578 6.38534 3.48811 6.88453 2.65437 8.33157L1.59639 10.0707C0.763662 11.5159 1.25606 13.3624 2.69784 14.2011C3.63502 14.7422 4.21235 15.7422 4.21235 16.8243C4.21235 17.9065 3.63502 18.9064 2.69784 19.4475C1.25789 20.2806 0.764956 22.1226 1.59639 23.5635L2.59639 25.2881C2.98704 25.993 3.64247 26.5131 4.41765 26.7334C5.19284 26.9537 6.02386 26.8561 6.72683 26.462C7.41789 26.0588 8.24139 25.9483 9.0143 26.1551C9.78721 26.362 10.4455 26.869 10.8428 27.5635C11.1033 28.0024 11.2433 28.5023 11.2486 29.0127C11.2486 30.6856 12.6047 32.0417 14.2776 32.0417H16.2631C17.9303 32.0417 19.2841 30.6944 19.292 29.0272C19.2882 28.2227 19.606 27.45 20.1749 26.8811C20.7438 26.3122 21.5165 25.9944 22.321 25.9982C22.8302 26.0119 23.3281 26.1513 23.7703 26.404C25.2155 27.2368 27.062 26.7444 27.9007 25.3026L28.9442 23.5635C29.3481 22.8702 29.459 22.0445 29.2522 21.2692C29.0455 20.494 28.5382 19.8331 27.8428 19.433C27.1473 19.0329 26.64 18.3721 26.4333 17.5968C26.2266 16.8215 26.3374 15.9959 26.7413 15.3026C27.004 14.844 27.3842 14.4638 27.8428 14.2011C29.2759 13.3629 29.7672 11.5272 28.9442 10.0852V10.0707Z" stroke="#070127" stroke-width="2" stroke-linecap="round" stroke-linejoin="round"/>
<path d="M15.2774 20.9982C17.5826 20.9982 19.4513 19.1295 19.4513 16.8243C19.4513 14.5191 17.5826 12.6504 15.2774 12.6504C12.9722 12.6504 11.1035 14.5191 11.1035 16.8243C11.1035 19.1295 12.9722 20.9982 15.2774 20.9982Z" stroke="#070127" stroke-width="2" stroke-linecap="round" stroke-linejoin="round"/>
</svg>
