<svg width="1439" height="340" viewBox="0 0 1439 340" fill="none" xmlns="http://www.w3.org/2000/svg">
<rect width="1439" height="340" fill="#BC9DFF"/>
<mask id="mask0_65_1077" style="mask-type:alpha" maskUnits="userSpaceOnUse" x="0" y="0" width="1439" height="340">
<rect width="1439" height="340" fill="#A7E1E1"/>
</mask>
<g mask="url(#mask0_65_1077)">
<path d="M-270.203 902.236C-200.557 848.743 -139.899 781.425 -91.1439 703.517C23.5916 518.449 -0.316302 379.814 69.5189 352.917C177.433 311.366 264.592 630.969 497.646 665.948C668.581 691.628 834.131 551.53 872.448 519.073C1021.94 392.587 1036.08 263.174 1147.27 251.887C1228.6 243.532 1256.06 309.163 1384.89 328.664C1474.58 342.238 1551.57 324.129 1603.18 306.409" stroke="white" stroke-opacity="0.5" stroke-width="2" stroke-miterlimit="10"/>
<path d="M-270.902 886.94C-201.251 833.43 -140.584 766.103 -91.8138 688.189C22.9224 503.088 -0.98609 364.486 68.8203 337.588C176.763 296.038 263.922 615.641 496.948 650.619C667.912 676.267 833.462 536.169 871.778 503.745C1021.27 377.259 1035.38 247.845 1146.6 236.559C1227.93 228.203 1255.36 293.834 1384.22 313.336C1473.94 326.91 1550.9 308.8 1602.51 291.081" stroke="white" stroke-opacity="0.5" stroke-width="2" stroke-miterlimit="10"/>
<path d="M-271.602 871.644C-201.943 818.144 -141.274 750.815 -92.513 672.893C22.2232 487.791 -1.68533 349.19 68.1499 322.293C175.977 280.74 263.251 600.345 496.277 635.323C667.213 660.971 832.763 520.873 871.079 488.449C1020.57 361.93 1034.71 232.549 1145.9 221.262C1227.23 212.907 1254.69 278.571 1383.52 298.073C1473.24 311.646 1550.2 293.537 1601.81 275.818" stroke="white" stroke-opacity="0.5" stroke-width="2" stroke-miterlimit="10"/>
<path d="M-272.246 856.35C-202.602 802.827 -141.945 735.488 -93.1857 657.565C21.5504 472.464 -2.35806 333.863 67.4484 306.965C175.391 265.414 262.55 585.017 495.576 619.996C666.54 645.644 832.09 505.546 870.406 473.121C1019.9 346.603 1034.01 217.221 1145.23 205.935C1226.56 197.58 1253.99 263.244 1382.85 282.745C1472.56 296.319 1549.52 278.209 1601.14 260.49" stroke="white" stroke-opacity="0.5" stroke-width="2" stroke-miterlimit="10"/>
<path d="M-272.973 841.054C-203.321 787.544 -142.654 720.216 -93.8841 642.303C20.8809 457.202 -3.05584 318.567 66.7788 291.703C174.692 250.152 261.88 569.755 494.906 604.734C665.871 630.382 831.391 490.283 869.736 457.859C1019.2 331.34 1033.34 201.959 1144.53 190.672C1225.86 182.317 1253.32 247.982 1382.15 267.483C1471.86 281.056 1548.83 262.914 1600.44 245.228" stroke="white" stroke-opacity="0.5" stroke-width="2" stroke-miterlimit="10"/>
<path d="M-273.645 825.759C-203.999 772.24 -143.334 704.914 -94.5559 627.008C20.1802 441.906 -3.7277 303.272 66.0781 276.407C173.934 234.855 261.179 554.459 494.232 589.57C665.168 615.217 830.717 475.119 869.033 442.695C1018.53 316.176 1032.63 186.795 1143.86 175.509C1225.19 167.153 1252.62 232.817 1381.47 252.319C1471.19 265.893 1548.15 247.75 1599.79 230.065" stroke="white" stroke-opacity="0.5" stroke-width="2" stroke-miterlimit="10"/>
<path d="M-274.289 810.431C-204.645 756.906 -143.996 689.554 -95.2568 611.613C19.5081 426.513 -4.4286 287.878 65.406 261.013C173.32 219.43 260.508 539.033 493.534 574.012C664.498 599.692 830.019 459.594 868.364 427.17C1017.83 300.651 1031.96 171.27 1143.16 159.983C1224.49 151.628 1251.95 217.292 1380.78 236.794C1470.49 250.334 1547.45 232.225 1599.06 214.539" stroke="white" stroke-opacity="0.5" stroke-width="2" stroke-miterlimit="10"/>
<path d="M-275.02 795.269C-205.361 741.769 -144.692 674.44 -95.931 596.518C18.8046 411.449 -5.10332 272.815 64.7031 245.918C172.646 204.367 259.804 523.97 492.859 558.949C663.794 584.629 829.344 444.531 867.661 412.074C1017.15 285.588 1031.26 156.207 1142.48 144.888C1223.82 136.533 1251.27 202.197 1380.1 221.665C1469.79 235.238 1546.75 217.129 1598.39 199.41" stroke="white" stroke-opacity="0.5" stroke-width="2" stroke-miterlimit="10"/>
<path d="M-275.719 779.845C-206.057 726.338 -145.38 659.011 -96.6014 581.095C18.1342 396.026 -5.80251 257.392 64.0327 230.494C171.889 188.942 259.134 508.546 492.158 543.623C663.122 569.304 828.643 429.206 866.989 396.749C1016.45 270.263 1030.59 140.849 1141.78 129.562C1223.11 121.207 1250.57 186.839 1379.4 206.34C1469.12 219.914 1546.08 201.804 1597.69 184.085" stroke="white" stroke-opacity="0.5" stroke-width="2" stroke-miterlimit="10"/>
<path d="M-276.332 764.551C-206.69 710.996 -146.041 643.624 -97.2986 565.668C17.4375 380.567 -6.47097 241.965 63.3642 215.068C171.278 173.517 258.437 493.12 491.492 528.099C662.427 553.779 827.976 413.681 866.293 381.224C1015.78 254.738 1029.89 125.324 1141.11 114.038C1222.45 105.683 1249.9 171.314 1378.73 190.816C1468.42 204.389 1545.38 186.279 1597.02 168.561" stroke="white" stroke-opacity="0.5" stroke-width="2" stroke-miterlimit="10"/>
<path d="M-277.059 749.32C-207.413 695.801 -146.748 628.475 -97.97 550.569C16.7661 365.467 -7.14238 226.866 62.664 199.968C170.578 158.417 257.765 478.021 490.791 512.999C661.756 538.647 827.277 398.549 865.622 366.125C1015.08 239.638 1029.22 110.225 1140.44 98.9386C1221.75 90.5828 1249.2 156.214 1378.06 175.716C1467.78 189.29 1544.74 171.18 1596.35 153.461" stroke="white" stroke-opacity="0.5" stroke-width="2" stroke-miterlimit="10"/>
<path d="M-277.762 733.959C-208.11 680.45 -147.443 613.122 -98.6731 535.208C16.063 350.107 -7.84548 211.506 61.9897 184.609C169.903 143.058 257.062 462.66 490.117 497.639C661.053 523.287 826.602 383.189 864.919 350.765C1014.41 224.246 1028.52 94.8645 1139.74 83.5781C1221.07 75.2229 1248.53 140.887 1377.36 160.389C1467.05 173.962 1544.01 155.852 1595.65 138.134" stroke="white" stroke-opacity="0.5" stroke-width="2" stroke-miterlimit="10"/>
<path d="M-278.375 718.665C-208.736 665.137 -148.072 597.813 -99.2864 519.914C15.4497 334.813 -8.45877 196.211 61.3477 169.314C169.203 127.794 256.447 447.497 489.417 482.343C660.382 507.991 825.903 367.893 864.248 335.469C1013.71 208.95 1027.85 79.569 1139.07 68.2826C1220.37 59.9269 1247.83 125.591 1376.69 145.093C1466.41 158.667 1543.37 140.524 1594.98 122.838" stroke="white" stroke-opacity="0.5" stroke-width="2" stroke-miterlimit="10"/>
<path d="M-279.133 703.369C-209.481 649.859 -148.814 582.532 -100.044 504.618C14.6919 319.517 -9.216 180.883 60.6186 154.018C168.532 112.467 255.691 432.07 488.746 467.049C659.682 492.697 825.231 352.598 863.519 320.174C1013.01 193.655 1027.12 64.2737 1138.34 52.9873C1219.67 44.6321 1247.13 110.296 1375.96 129.798C1465.65 143.371 1542.61 125.229 1594.25 107.543" stroke="white" stroke-opacity="0.5" stroke-width="2" stroke-miterlimit="10"/>
<path d="M-279.805 688.073C-210.159 634.555 -149.494 567.228 -100.716 489.322C14.02 304.221 -9.88784 165.587 59.918 138.722C167.803 97.1703 255.019 416.774 488.046 451.72C659.01 477.368 824.531 337.269 862.876 304.846C1012.34 178.326 1026.48 48.9455 1137.7 37.6591C1219 29.3034 1246.46 94.9677 1375.32 114.47C1465.03 128.01 1541.99 109.901 1593.61 92.2146" stroke="white" stroke-opacity="0.5" stroke-width="2" stroke-miterlimit="10"/>
<path d="M-280.414 672.747C-210.749 619.255 -150.08 551.925 -101.325 473.996C13.4101 288.927 -10.4978 150.293 59.3368 123.428C167.165 81.8431 254.408 401.546 487.378 436.425C658.313 462.105 823.863 322.007 862.179 289.583C1011.67 163.064 1025.78 33.6829 1137 22.3965C1218.33 14.0413 1245.79 79.7056 1374.62 99.2069C1464.31 112.747 1541.27 94.6376 1592.91 76.9518" stroke="white" stroke-opacity="0.5" stroke-width="2" stroke-miterlimit="10"/>
<path d="M-281.172 657.418C-211.513 603.918 -150.845 536.589 -102.083 458.667C12.6522 273.598 -11.2557 134.964 58.5508 108.066C166.464 66.5155 253.652 386.119 486.678 421.097C657.642 446.778 823.163 306.679 861.508 274.223C1010.97 147.737 1025.11 18.323 1136.33 7.03656C1217.66 -1.31865 1245.09 64.3125 1373.95 83.8143C1463.67 97.3879 1540.63 79.2784 1592.24 61.5593" stroke="white" stroke-opacity="0.5" stroke-width="2" stroke-miterlimit="10"/>
<path d="M-281.879 642.153C-212.22 588.653 -151.552 521.324 -102.79 443.402C11.9452 258.333 -11.9627 119.699 57.8725 92.8018C165.757 51.2504 252.945 370.853 486.001 405.767C656.936 431.447 822.486 291.349 860.803 258.892C1010.29 132.406 1024.4 2.9923 1135.62 -8.2941C1216.96 -16.6493 1244.41 48.9823 1373.24 68.4836C1462.93 82.0566 1539.89 63.9471 1591.53 46.2286" stroke="white" stroke-opacity="0.5" stroke-width="2" stroke-miterlimit="10"/>
<path d="M-282.461 626.86C-212.809 573.35 -152.142 506.022 -103.372 428.109C11.3638 243.007 -12.5447 104.406 57.2617 77.5083C165.09 35.8902 252.362 355.593 485.303 390.538C656.267 416.186 821.817 276.088 860.133 243.663C1009.6 117.177 1023.73 -12.2367 1134.95 -23.5231C1216.29 -31.8783 1243.72 33.7527 1372.57 53.2545C1462.29 66.8281 1539.25 48.7186 1590.86 30.9995" stroke="white" stroke-opacity="0.5" stroke-width="2" stroke-miterlimit="10"/>
<path d="M-283.246 611.463C-213.587 557.964 -152.919 490.634 -104.157 412.712C10.5786 227.611 -13.3299 89.0097 56.5054 62.1124C164.419 20.5615 251.578 340.164 484.633 375.143C655.567 400.889 821.116 260.791 859.432 228.367C1008.92 101.848 1023.03 -27.5333 1134.25 -38.8197C1215.59 -47.1749 1243.04 18.4895 1371.87 37.9908C1461.56 51.5638 1538.52 33.4544 1590.16 15.7358" stroke="white" stroke-opacity="0.5" stroke-width="2" stroke-miterlimit="10"/>
<path d="M-283.922 596.264C-214.27 542.754 -153.603 475.427 -104.833 397.513C9.90287 212.412 -14.0056 73.8105 55.8008 46.9127C163.715 5.36178 250.902 324.965 483.931 359.812C654.895 385.46 820.445 245.362 858.761 212.938C1008.22 86.4189 1022.36 -42.9619 1133.58 -54.2483C1214.92 -62.6035 1242.34 3.0604 1371.2 22.5622C1460.92 36.1358 1537.88 18.0263 1589.49 0.307215" stroke="white" stroke-opacity="0.5" stroke-width="2" stroke-miterlimit="10"/>
<path d="M-284.504 580.974C-214.852 527.464 -154.185 460.136 -105.415 382.223C9.32091 197.121 -14.587 58.4872 55.2476 31.6227C163.049 -10.0615 250.321 309.642 483.26 344.651C654.196 370.299 819.745 230.201 858.061 197.777C1007.55 71.2579 1021.66 -58.1233 1132.88 -69.4097C1214.22 -77.7649 1241.67 -12.1006 1370.5 7.40066C1460.19 20.9737 1537.18 2.83197 1588.79 -14.8543" stroke="white" stroke-opacity="0.5" stroke-width="2" stroke-miterlimit="10"/>
<path d="M-285.285 565.513C-215.64 511.994 -154.974 444.668 -106.197 366.762C8.53959 181.66 -15.3683 43.0262 54.4375 16.1612C162.351 -25.3897 249.539 294.213 482.565 329.192C653.526 355.004 819.076 214.906 857.392 182.482C1006.88 55.963 1020.99 -73.4183 1132.21 -84.7047C1213.55 -93.0599 1240.97 -27.396 1369.83 -7.8942C1459.55 5.67935 1536.51 -12.4629 1588.12 -30.1492" stroke="white" stroke-opacity="0.5" stroke-width="2" stroke-miterlimit="10"/>
<path d="M-285.992 550.346C-216.336 496.856 -155.668 429.538 -106.904 351.627C7.83196 166.526 -16.0759 27.892 53.7587 1.02746C161.673 -40.5562 248.832 279.046 481.886 314.058C652.822 339.706 818.371 199.608 856.687 167.184C1006.18 40.6649 1020.32 -88.7159 1131.51 -100.003C1212.84 -108.358 1240.3 -42.6937 1369.13 -23.1924C1458.82 -9.65211 1535.81 -27.7611 1587.42 -45.4474" stroke="white" stroke-opacity="0.5" stroke-width="2" stroke-miterlimit="10"/>
<path d="M-286.547 535.062C-216.888 481.562 -156.22 414.233 -107.458 336.311C7.27734 151.242 -16.6306 12.6083 53.1759 -14.2895C161.006 -56.0059 248.279 263.697 481.188 298.739C652.152 324.42 817.702 184.322 856.019 151.865C1005.51 25.3791 1019.62 -104.002 1130.84 -115.321C1212.17 -123.677 1239.6 -58.0128 1368.46 -38.5438C1458.18 -24.9702 1535.14 -43.0797 1586.75 -60.7988" stroke="white" stroke-opacity="0.5" stroke-width="2" stroke-miterlimit="10"/>
<path d="M-287.363 519.762C-217.704 466.262 -157.036 398.933 -108.275 321.011C6.46086 135.942 -17.447 -2.69198 52.3882 -29.5893C160.302 -71.1402 247.49 248.463 480.516 283.442C651.451 309.122 816.998 169.122 855.346 136.567C1004.81 10.0808 1018.95 -119.333 1130.14 -130.62C1211.47 -138.975 1238.93 -73.3432 1367.76 -53.8419C1457.47 -40.2684 1534.44 -58.3778 1586.05 -76.0969" stroke="white" stroke-opacity="0.5" stroke-width="2" stroke-miterlimit="10"/>
<path d="M-288.031 504.466C-218.379 450.956 -157.713 383.628 -108.943 305.715C5.79349 120.613 -18.115 -17.9878 51.6914 -44.8856C159.634 -86.436 246.793 233.167 479.819 268.145C650.783 293.826 816.332 153.728 854.649 121.271C1004.14 -5.215 1018.25 -134.629 1129.47 -145.915C1210.8 -154.271 1238.23 -88.6395 1367.09 -69.1377C1456.81 -55.5642 1533.77 -73.6736 1585.38 -91.3927" stroke="white" stroke-opacity="0.5" stroke-width="2" stroke-miterlimit="10"/>
</g>
</svg>
