<svg width="131" height="131" viewBox="0 0 131 131" fill="none" xmlns="http://www.w3.org/2000/svg">
<g clip-path="url(#clip0_65_1059)">
<path fill-rule="evenodd" clip-rule="evenodd" d="M77.1992 56.8302C79.4383 55.4641 81.0963 53.3477 81.8332 50.3227C84.1124 40.965 79.7134 34.1074 72.5347 29.3798C62.0523 22.477 45.5672 20.192 36.1312 21.2089C35.6842 21.2566 35.3621 21.6584 35.4108 22.1036C35.4585 22.5505 35.8593 22.8743 36.3062 22.8266C45.4647 21.839 61.4675 24.0399 71.6412 30.7385C78.2326 35.0796 82.3464 41.3435 80.2518 49.9381C79.6302 52.4965 78.225 54.2778 76.3348 55.4378C75.5577 54.2142 74.7563 53.0287 73.9313 51.8841C71.653 48.725 64.3045 41.7263 57.5779 38.8712C52.7522 36.8244 48.2519 36.9064 45.8326 41.3678C44.4884 43.8478 44.9898 46.4929 46.7867 48.9711C49.255 52.3798 54.256 55.4898 59.7446 57.2629C64.314 58.7398 69.211 59.2922 73.2338 58.3871C74.1175 58.1863 74.9611 57.9197 75.7513 57.5773C86.2065 74.7517 91.5335 98.5181 88.3582 117.933C88.2875 118.375 88.586 118.794 89.0304 118.866C89.4738 118.939 89.8919 118.638 89.9643 118.196C93.1899 98.4648 87.8037 74.3207 77.1992 56.8302ZM74.8765 56.174C74.1436 55.0258 73.3885 53.912 72.6117 52.8356C70.4276 49.8091 63.3878 43.1046 56.9428 40.3694C52.9878 38.6903 49.2448 38.4869 47.2618 42.1432C46.2215 44.0641 46.7137 46.0971 48.1027 48.0176C49.6329 50.1286 52.2219 52.0926 55.2841 53.6639C59.9333 56.0495 65.6752 57.5233 70.5622 57.1408C72.1104 57.0204 73.5718 56.7099 74.8765 56.174Z" fill="#8635FD"/>
<path fill-rule="evenodd" clip-rule="evenodd" d="M72.5705 92.0291C80.0341 98.2293 85.7277 108.735 88.4658 118.096C88.5917 118.526 89.0439 118.773 89.4745 118.647C89.905 118.522 90.1536 118.07 90.0278 117.64C87.2052 107.986 81.304 97.1709 73.6101 90.7785C73.2659 90.4921 72.7527 90.5395 72.4653 90.8854C72.1789 91.2296 72.2263 91.7427 72.5705 92.0291Z" fill="#8635FD"/>
<path fill-rule="evenodd" clip-rule="evenodd" d="M90.2288 117.635C90.2668 109.557 95.1671 99.9613 100.847 94.1832C101.162 93.8628 101.159 93.3468 100.838 93.0332C100.517 92.7179 100.003 92.722 99.6879 93.0424C93.7378 99.0958 88.6427 109.164 88.6027 117.628C88.5997 118.076 88.9639 118.443 89.4124 118.446C89.862 118.447 90.2276 118.085 90.2288 117.635Z" fill="#8635FD"/>
</g>
<defs>
<clipPath id="clip0_65_1059">
<rect width="95.6489" height="95.6489" fill="white" transform="translate(130.66 47.8242) rotate(120)"/>
</clipPath>
</defs>
</svg>
