<svg width="1440" height="920" viewBox="0 0 1440 920" fill="none" xmlns="http://www.w3.org/2000/svg">
<g clip-path="url(#clip0_65_1388)">
<path d="M-247.7 -185L-247.7 1079.3M812.7 -185L812.7 1079.3M-151.3 -185L-151.3 1079.3M909.1 -185L909.1 1079.3M-54.8999 -185L-54.8999 1079.3M1005.5 -185L1005.5 1079.3M41.5001 -185L41.5001 1079.3M1101.9 -185L1101.9 1079.3M137.9 -185L137.9 1079.3M1198.3 -185L1198.3 1079.3M234.3 -185L234.3 1079.3M1294.7 -185V1079.3M330.7 -185L330.7 1079.3M1391.1 -185V1079.3M427.1 -185L427.1 1079.3M1487.5 -185V1079.3M523.5 -185L523.5 1079.3M1583.9 -185V1079.3M619.9 -185L619.9 1079.3M1680.3 -185V1079.3M716.3 -185L716.3 1079.3M1776.7 -185V1079.3M1849 -130.751L-320 -130.751M1849 930.115H-320M1849 -34.3088L-320 -34.3088M1849 1026.56H-320M1849 62.1336L-320 62.1336M1849 1123H-320M1849 158.576L-320 158.576M1849 255.018L-320 255.018M1849 351.461L-320 351.461M1849 447.903L-320 447.903M1849 544.346L-320 544.346M1849 640.788H-320M1849 737.23H-320M1849 833.673H-320" stroke="url(#paint0_radial_65_1388)" stroke-opacity="0.5"/>
</g>
<defs>
<radialGradient id="paint0_radial_65_1388" cx="0" cy="0" r="1" gradientUnits="userSpaceOnUse" gradientTransform="translate(764 415.5) rotate(89.9448) scale(519 860.636)">
<stop stop-color="white" stop-opacity="0.3"/>
<stop offset="0.855" stop-color="white" stop-opacity="0.08"/>
</radialGradient>
<clipPath id="clip0_65_1388">
<rect width="1440" height="920" fill="white"/>
</clipPath>
</defs>
</svg>
