<svg width="20" height="20" viewBox="0 0 20 20" fill="none" xmlns="http://www.w3.org/2000/svg">
<mask id="mask0_96_273" style="mask-type:luminance" maskUnits="userSpaceOnUse" x="0" y="0" width="20" height="20">
<path d="M10.0013 18.3334C11.0959 18.3347 12.1799 18.1198 13.1911 17.7009C14.2023 17.282 15.1208 16.6675 15.8938 15.8925C16.6687 15.1195 17.2833 14.201 17.7022 13.1898C18.1211 12.1786 18.336 11.0946 18.3346 10C18.336 8.90548 18.1211 7.82146 17.7022 6.81023C17.2833 5.79901 16.6687 4.88051 15.8938 4.10753C15.1208 3.33259 14.2023 2.71803 13.1911 2.29916C12.1799 1.88028 11.0959 1.66534 10.0013 1.66669C8.90676 1.66534 7.82274 1.88028 6.81151 2.29916C5.80029 2.71803 4.8818 3.33259 4.10881 4.10753C3.33388 4.88051 2.71932 5.79901 2.30044 6.81023C1.88156 7.82146 1.66663 8.90548 1.66798 10C1.66663 11.0946 1.88156 12.1786 2.30044 13.1898C2.71932 14.201 3.33388 15.1195 4.10881 15.8925C4.8818 16.6675 5.80029 17.282 6.81151 17.7009C7.82274 18.1198 8.90676 18.3347 10.0013 18.3334Z" fill="white" stroke="white" stroke-width="1.8" stroke-linejoin="round"/>
<path d="M6.66797 10L9.16797 12.5L14.168 7.5" stroke="black" stroke-width="1.8" stroke-linecap="round" stroke-linejoin="round"/>
</mask>
<g mask="url(#mask0_96_273)">
<path d="M0 0H20V20H0V0Z" fill="#070127"/>
</g>
</svg>
